<?xml version="1.0" encoding="UTF-8" standalone="no"?>
<svg width="400px" height="425px" viewBox="0 0 400 425" version="1.1" xmlns="http://www.w3.org/2000/svg" xmlns:xlink="http://www.w3.org/1999/xlink">
    <!-- Generator: Sketch 39 (31667) - http://www.bohemiancoding.com/sketch -->
    <title>symbol mot svart copy 5</title>
    <desc>Created with Sketch.</desc>
    <defs></defs>
    <g id="Page-1" stroke="none" stroke-width="1" fill="none" fill-rule="evenodd">
        <g id="symbol-mot-svart-copy-5">
            <g id="vinnovera_mot_svart" transform="translate(0.000000, -1.000000)">
                <g id="Group-+-Fill-13-+-Fill-14-+-Fill-15">
                    <g id="Group" transform="translate(0.000000, 357.000000)" fill="#FFFFFF">
                        <path d="M25.4556391,53.9923759 L25.7493734,53.9923759 L42.087218,4.38091017 C42.7719298,2.12630024 44.2385965,0.949763593 46.1954887,0.949763593 C48.641604,0.949763593 50.402005,2.71507092 50.402005,5.06814421 C50.402005,5.65591017 50.3047619,6.34213948 50.0110276,7.22429078 L30.7388471,63.600591 C29.4666667,67.1302009 28.0972431,68.6011229 25.358396,68.6011229 C22.716792,68.6011229 21.2491228,67.1302009 20.075188,63.600591 L0.803007519,7.22429078 C0.509273183,6.34213948 0.412030075,5.65591017 0.412030075,5.06814421 C0.412030075,2.71507092 2.17243108,0.949763593 4.61854637,0.949763593 C6.6726817,0.949763593 8.04210526,2.12630024 8.82506266,4.38091017 L25.4556391,53.9923759" id="Fill-3"></path>
                        <path d="M60.9794486,25.0692671 C60.9794486,22.3233452 62.7408521,20.6565012 65.0887218,20.6565012 C67.4365915,20.6565012 69.197995,22.3233452 69.197995,25.0692671 L69.197995,64.1893617 C69.197995,66.934279 67.4365915,68.6011229 65.0887218,68.6011229 C62.7408521,68.6011229 60.9794486,66.934279 60.9794486,64.1893617 L60.9794486,25.0692671" id="Fill-4"></path>
                        <path d="M81.1849624,25.0692671 C81.1849624,22.3233452 82.9453634,20.6565012 85.2932331,20.6565012 C87.6411028,20.6565012 89.4025063,22.3233452 89.4025063,25.0692671 L89.4025063,26.4417258 L89.4997494,26.4417258 C91.7503759,22.8136525 96.2506266,20.0687352 102.609524,20.0687352 C112.78396,20.0687352 118.849123,27.0294917 118.849123,37.7167849 L118.849123,64.1893617 C118.849123,66.934279 117.087719,68.6011229 114.73985,68.6011229 C112.39198,68.6011229 110.630576,66.934279 110.630576,64.1893617 L110.630576,39.6780142 C110.630576,32.128487 107.207018,27.7167258 100.163409,27.7167258 C93.8045113,27.7167258 89.4025063,32.2259456 89.4025063,39.1877069 L89.4025063,64.1893617 C89.4025063,66.934279 87.6411028,68.6011229 85.2932331,68.6011229 C82.9453634,68.6011229 81.1849624,66.934279 81.1849624,64.1893617 L81.1849624,25.0692671" id="Fill-5"></path>
                        <path d="M130.86416,25.0692671 C130.86416,22.3233452 132.624561,20.6565012 134.972431,20.6565012 C137.320301,20.6565012 139.081704,22.3233452 139.081704,25.0692671 L139.081704,26.4417258 L139.178947,26.4417258 C141.429574,22.8136525 145.929825,20.0687352 152.288722,20.0687352 C162.462155,20.0687352 168.528321,27.0294917 168.528321,37.7167849 L168.528321,64.1893617 C168.528321,66.934279 166.766917,68.6011229 164.419048,68.6011229 C162.071178,68.6011229 160.310777,66.934279 160.310777,64.1893617 L160.310777,39.6780142 C160.310777,32.128487 156.886216,27.7167258 149.842607,27.7167258 C143.483709,27.7167258 139.081704,32.2259456 139.081704,39.1877069 L139.081704,64.1893617 C139.081704,66.934279 137.320301,68.6011229 134.972431,68.6011229 C132.624561,68.6011229 130.86416,66.934279 130.86416,64.1893617 L130.86416,25.0692671" id="Fill-6"></path>
                        <path d="M209.526817,54.1882979 C210.309774,51.6393026 210.603509,49.0903073 210.603509,44.5800827 C210.603509,40.0698582 210.309774,37.6193262 209.526817,35.0693262 C207.961905,30.3631797 204.146366,27.7167258 198.961404,27.7167258 C193.776441,27.7167258 189.961905,30.3631797 188.39599,35.0693262 C187.614035,37.6193262 187.320301,40.0698582 187.320301,44.5800827 C187.320301,49.0903073 187.614035,51.6393026 188.39599,54.1882979 C189.961905,58.8944444 193.776441,61.5419031 198.961404,61.5419031 C204.146366,61.5419031 207.961905,58.8944444 209.526817,54.1882979 L209.526817,54.1882979 Z M180.47218,56.5413712 C179.395489,53.3061466 178.907268,50.070922 178.907268,44.5800827 C178.907268,39.1877069 179.395489,35.9524823 180.47218,32.716253 C183.015539,24.6764184 189.863659,20.0687352 198.961404,20.0687352 C208.06015,20.0687352 214.908271,24.6764184 217.451629,32.716253 C218.527318,35.9524823 219.016541,39.1877069 219.016541,44.5800827 C219.016541,50.070922 218.527318,53.3061466 217.451629,56.5413712 C214.908271,64.483747 208.06015,69.1898936 198.961404,69.1898936 C189.863659,69.1898936 183.015539,64.483747 180.47218,56.5413712 L180.47218,56.5413712 Z" id="Fill-7"></path>
                        <path d="M240.382957,63.5031324 L226.198496,26.6376478 C225.904762,25.8529551 225.806516,25.2651891 225.806516,24.5789598 C225.806516,22.4218085 227.372431,20.6565012 229.817544,20.6565012 C231.774436,20.6565012 233.046617,21.8330378 233.731328,23.5983452 L245.861654,56.2479905 L246.057143,56.2479905 L257.894737,23.5983452 C258.579449,21.8330378 259.851629,20.6565012 261.807519,20.6565012 C264.253634,20.6565012 265.818546,22.4218085 265.818546,24.5789598 C265.818546,25.2651891 265.721303,25.8529551 265.427569,26.6376478 L251.144862,63.5031324 C249.677193,67.3271277 248.405013,68.6011229 245.763409,68.6011229 C243.122807,68.6011229 241.850627,67.3271277 240.382957,63.5031324" id="Fill-8"></path>
                        <path d="M303.358396,40.2657801 C303.749373,40.2657801 303.944862,40.0698582 303.944862,39.6780142 C303.944862,37.5208629 303.749373,35.8540189 303.26015,34.3830969 C301.695238,29.6769504 297.781454,27.0294917 292.499248,27.0294917 C287.21604,27.0294917 283.303258,29.6769504 281.737343,34.3830969 C281.249123,35.8540189 281.052632,37.5208629 281.052632,39.6780142 C281.052632,40.0698582 281.249123,40.2657801 281.6401,40.2657801 L303.358396,40.2657801 L303.358396,40.2657801 Z M274.204511,56.1495272 C273.227068,53.2076832 272.639599,49.875 272.639599,44.2856974 C272.639599,38.6973995 273.128822,35.3637116 274.107268,32.4228723 C276.748872,24.2845745 283.498747,19.7743499 292.401003,19.7743499 C301.596992,19.7743499 308.249624,24.2845745 310.792982,32.324409 C311.868672,35.4621749 312.357895,39.0892435 312.357895,43.6979314 C312.357895,45.5606974 311.086717,46.8346927 309.129825,46.8346927 L281.6401,46.8346927 C281.249123,46.8346927 281.052632,47.0316194 281.052632,47.4234634 C281.052632,49.6780733 281.249123,51.2474586 281.835589,53.1102246 C283.596992,58.5026005 287.900752,61.2475177 293.673183,61.2475177 C298.270677,61.2475177 301.401504,59.8750591 304.923308,57.2276005 C305.901754,56.4439125 306.781955,56.0510638 307.760401,56.0510638 C309.717293,56.0510638 311.18396,57.5219858 311.18396,59.4832151 C311.18396,60.6597518 310.694737,61.6403664 309.912782,62.4240544 C305.901754,66.150591 300.325815,68.8955083 293.085714,68.8955083 C283.400501,68.8955083 276.846115,64.3852837 274.204511,56.1495272 L274.204511,56.1495272 Z" id="Fill-9"></path>
                        <path d="M324.357895,63.8949764 L324.357895,24.7748818 C324.357895,22.0299645 326.118296,20.3631206 328.466165,20.3631206 C330.814035,20.3631206 332.575439,22.0299645 332.575439,24.7748818 L332.575439,26.9320331 L332.672682,26.9320331 C334.629574,22.7161939 338.934336,19.7743499 344.705764,19.7743499 C347.934837,19.7743499 350.086216,20.5590426 351.65213,21.4411939 C353.315288,22.3233452 354,23.5983452 354,24.9708038 C354,27.3238771 352.336842,29.0891844 349.890727,29.0891844 C349.304261,29.0891844 348.521303,28.8932624 347.836591,28.5988771 C346.07619,27.9126478 344.413033,27.4223404 342.45614,27.4223404 C335.412531,27.4223404 332.575439,33.3050236 332.575439,41.1489362 L332.575439,63.8949764 C332.575439,66.6398936 330.814035,68.3067376 328.466165,68.3067376 C326.118296,68.3067376 324.357895,66.6398936 324.357895,63.8949764" id="Fill-10"></path>
                        <path d="M389.018546,52.6199173 L389.018546,47.4234634 C389.018546,47.0316194 388.822055,46.8346927 388.431078,46.8346927 L379.039599,46.8346927 C371.017544,46.8346927 367.397494,49.187766 367.397494,54.4826832 C367.397494,59.3847518 370.919298,61.8362884 377.180952,61.8362884 C384.42005,61.8362884 389.018546,58.4041371 389.018546,52.6199173 L389.018546,52.6199173 Z M400.170426,64.3852837 C400.170426,66.6398936 398.410025,68.3067376 395.96391,68.3067376 C394.496241,68.3067376 393.322306,67.6205083 392.34386,66.2480496 L390.485213,63.3072104 L390.38797,63.3072104 C387.257143,66.8368203 382.855138,68.8955083 376.007018,68.8955083 C365.538847,68.8955083 359.473684,63.6990544 359.473684,54.7770686 C359.473684,45.0703901 366.126316,40.2657801 377.767419,40.2657801 L388.431078,40.2657801 C388.822055,40.2657801 389.018546,40.0698582 389.018546,39.6780142 L389.018546,37.4223995 C389.018546,30.853487 385.984962,27.1279551 377.767419,27.1279551 C374.148371,27.1279551 370.431078,28.3044917 368.180451,29.4810284 C367.397494,29.8728723 366.517293,30.1672577 365.832581,30.1672577 C363.680201,30.1672577 362.310777,28.7947991 362.310777,26.6376478 C362.310777,25.3626478 362.898246,24.0886525 364.267669,23.3039598 C367.202005,21.3437352 372.093233,19.7743499 378.550376,19.7743499 C391.072682,19.7743499 396.942356,25.7554965 396.942356,37.3249409 L396.942356,54.1882979 C396.942356,56.6398345 397.137845,57.6204492 397.822556,58.9929078 L399.485714,62.0322104 C399.876692,62.7184397 400.170426,63.600591 400.170426,64.3852837 L400.170426,64.3852837 Z" id="Fill-11"></path>
                        <path d="M59.7082707,6.34213948 C59.7082707,3.30283688 62.1533835,0.949763593 65.0887218,0.949763593 C68.0240602,0.949763593 70.4691729,3.30283688 70.4691729,6.34213948 C70.4691729,9.28398345 68.0240602,11.7345154 65.0887218,11.7345154 C62.1533835,11.7345154 59.7082707,9.28398345 59.7082707,6.34213948" id="Fill-12"></path>
                    </g>
                    <g id="Fill-13-+-Fill-14-+-Fill-15" transform="translate(35.000000, 0.000000)">
                        <g id="Fill-13-+-Fill-14">
                            <path d="M330.56792,166.628428 C330.56792,258.109929 256.57193,332.270922 165.290727,332.270922 C74.0095238,332.270922 0.0145363409,258.109929 0.0145363409,166.628428 C0.0145363409,75.1469267 74.0095238,0.984929078 165.290727,0.984929078 C256.57193,0.984929078 330.56792,75.1469267 330.56792,166.628428" id="Fill-13" fill="#FFFFFF"></path>
                            <path d="M166.185965,104.927069 C164.21203,109.947695 163.168421,117.616785 163.168421,127.105437 C163.168421,140.665248 165.096241,155.879846 168.24411,170.728723 C173.47218,151.328428 176.197995,131.923109 176.63208,117.649941 C177.32381,94.9370567 168.478697,99.1036643 166.185965,104.927069 L166.185965,104.927069 Z M225.754887,187.139953 C226.189975,195.144622 227.38797,203.09805 229.967419,211.107742 C233.114286,202.7263 234.757393,193.93292 235.127318,186.373345 C235.794987,172.733156 224.988972,173.063712 225.754887,187.139953 L225.754887,187.139953 Z M124.398496,255.361998 L125.180451,255.338889 C105.174436,254.463771 89.0080201,227.489835 73.9473684,172.953191 C63.1864662,133.979787 57.9162907,94.4909574 57.8591479,94.097104 C57.402005,90.9060875 59.8360902,87.9471631 63.0200501,87.4890071 C66.2030075,87.0268322 69.2666667,89.2462766 69.724812,92.4372931 C69.7809524,92.8241135 75.4651629,131.668913 86.0406015,169.931974 C98.8135338,216.152482 113.865163,242.93552 127.382957,243.671986 C134.413534,243.181678 146.843609,231.01643 159.4401,197.979965 C160.161905,196.089066 160.872682,194.172045 161.559398,192.233924 C155.174436,169.42961 151.516291,144.930319 151.516291,127.105437 C151.516291,116.008215 152.807519,107.106324 155.34787,100.645922 C159.87218,89.1468085 167.685714,87.4970449 171.939348,87.4297281 C175.753885,87.3694444 181.678697,88.1340426 185.357895,98.0286052 C187.171429,102.904551 188.281203,109.305674 188.281203,117.649941 C188.281203,135.628546 182.902757,165.334338 173.81604,192.560461 C182.327318,220.92695 194.389474,243.589598 204.053634,243.589598 C209.917293,243.589598 217.124311,236.04409 223.121303,225.661229 C217.427068,212.568617 214.107769,197.766962 214.107769,187.312766 C214.107769,181.078428 215.145363,175.993499 217.195489,172.199645 C219.941353,167.112707 224.520802,164.31052 230.087719,164.31052 C235.7599,164.31052 240.12782,167.257388 243.33183,171.890189 C245.793985,175.452955 246.775439,180.290721 246.775439,186.373345 C246.775439,197.043558 242.712281,212.408865 236.057644,225.920449 C241.231579,236.014953 247.488221,243.282151 252.689223,243.282151 C254.809524,243.282151 257.238596,242.15987 262.19599,236.685106 C264.360401,234.297872 268.045614,234.118026 270.423559,236.28422 C272.805514,238.450414 272.984962,242.141785 270.823559,244.529019 C265.156391,250.78747 259.903258,254.956087 252.689223,254.956087 C243.692732,254.956087 235.675689,247.711998 229.309774,237.547163 C222.209023,247.884811 213.457143,255.263534 204.054637,255.263534 C189.345865,255.263534 174.761404,235.463357 165.484211,210.065839 C155.065163,234.97305 138.433584,254.504965 124.398496,255.33487 L124.398496,255.361998 L124.398496,255.361998 Z" id="Fill-14" fill="#000000"></path>
                        </g>
                        <path d="M230.513784,140.650177 L230.503759,140.650177 C228.95589,140.650177 227.461153,139.172222 226.407519,137.608865 C225.538346,136.321809 225.041103,134.420863 225.043108,132.899704 C225.051128,129.539894 226.93584,126.663357 230.516792,126.663357 C234.028571,126.663357 235.990476,129.916667 235.985464,133.279492 C235.980451,136.525768 233.73183,140.650177 230.513784,140.650177 L230.513784,140.650177 Z M230.093734,113.301478 C221.011028,113.301478 213.601504,121.526182 213.578446,131.663889 C213.574436,136.252482 215.073183,141.080201 217.694737,144.96448 C220.874687,149.678664 225.38396,152.325118 230.054637,152.325118 L230.084712,152.325118 C239.79198,152.325118 246.576942,141.470035 246.592982,131.675946 C246.606015,121.530201 239.214536,113.318558 230.093734,113.301478 L230.093734,113.301478 Z" id="Fill-15" fill="#3FA9F5"></path>
                    </g>
                </g>
            </g>
        </g>
    </g>
</svg>